<?xml version="1.0" encoding="UTF-8"?>
<svg id="Layer_1" data-name="Layer 1" xmlns="http://www.w3.org/2000/svg" viewBox="0 0 1080 1080">
  <defs>
    <style>
      .cls-1 {
        fill: #5c9a53;
      }

      .cls-2 {
        fill: #eeca31;
      }

      .cls-3 {
        fill: #8a8a86;
      }

      .cls-4 {
        fill: #8b8b87;
      }

      .cls-5 {
        fill: #fff;
      }

      .cls-6 {
        fill: #263b8f;
      }

      .cls-7 {
        fill: #898985;
      }

      .cls-8 {
        fill: #8a8b86;
      }

      .cls-9 {
        fill: #efcc31;
      }

      .cls-10 {
        fill: #8b8b86;
      }

      .cls-11 {
        fill: #898a85;
      }
    </style>
  </defs>
  <rect class="cls-5" x="-68.69" y="-24.78" width="1213.73" height="1213.73"/>
  <g>
    <path class="cls-8" d="M298.92,772.49l.03-8.32,21.62.07-.03,25h-9.34s-.22-7.26-.22-7.26c-2.66,2.9-4.71,5.7-8.2,6.83-8.11,2.61-16.91-.28-22.18-7.26-7.47-9.91-6.9-24.36,1.47-33.58,7.57-8.33,20.18-9.32,28.39-2.26h7.4s-.12,10.52-.12,10.52l-9.96-.06c-2.14-3.3-5.23-5.26-8.69-5.59-3.71-.35-7.29,1.37-9.63,4.71-3.59,5.12-4.28,11.94-1.67,17.67,2.75,6.05,9.82,8.8,15.65,5.68,2.2-1.18,3.22-3.67,4.13-5.97l-8.64-.19Z"/>
    <path class="cls-8" d="M479.76,780.74l11.59.23.31-8.42,10.17-.05-.03,16.75h-36.89s-.04-8.34-.04-8.34c1.75.16,2.87.27,4.54-.21l-.03-29.68-4.6-.2-.1-8.99,37.13-.02.07,15.74-10.29.05-.1-6.77-11.58-.03-.09,10.03,9.26.25.15,8.52-9.46.13.02,11Z"/>
    <path class="cls-8" d="M617.22,780.79l11.91.08.09-8.37,10.12-.05.18,16.85-36.99-.05-.05-8.35c1.76.18,2.94.23,4.28-.25v-29.66c-1.39-.34-2.58-.24-4.34-.2l-.11-8.93,36.9.03.08,15.63-10.27.11-.18-6.84-11.42-.08-.05,10.17,9.13.21v8.68s-9.2.04-9.2.04l-.08,10.98Z"/>
    <path class="cls-8" d="M703.25,780.78l11.73.14.1-8.34,10.23-.05-.07,16.76-36.52-.04-.02-8.38c1.76.18,2.96.24,4.28-.24v-29.7c-1.54-.48-2.88-.31-4.56-.32l.03-8.8,36.78.02.12,15.72-10.37-.02-.07-6.72-11.44.02-.03,10.18,9.26.06.07,8.75h-9.3s-.2,10.96-.2,10.96Z"/>
    <path class="cls-8" d="M672.87,789.26l-19.38.04.11-8.32c1.48.02,2.6.19,4.16-.27l-.02-30.5c-1.9-.45-3.35-.38-5.54-.2l-.26,6.29-10.28-.03.03-14.5,43.19.03.03,14.59-10.61-.09-.06-6.09c-1.98-.45-3.74-.57-5.99-.03v30.49c1.76.48,2.89.37,4.64.2l-.02,8.37Z"/>
    <path class="cls-8" d="M439.9,770.32l-.26,10.36,4.67.31.05,8.28-19.35-.03v-8.33c1.72.16,2.88.22,4.39-.27l-.02-29.65c-1.52-.45-2.7-.36-4.5-.21l-.07-8.89,35.67-.03.07,15.59-9.83.09-.24-6.71-10.86.02.03,10.48,9.42.32v8.83s-9.18-.15-9.18-.15Z"/>
    <path class="cls-4" d="M797.63,789.27l-18.78-.02.11-8.26c1.49.08,2.61.25,4.22-.27l-.03-30.52-4.19-.29-.06-8.21h18.73s.17,8.12.17,8.12l-4.56.37.04,30.49c1.38.47,2.55.41,4.35.22v8.39Z"/>
    <path class="cls-8" d="M580.35,774.63c-1.02-4.31-5.12-4.9-10.35-4.13l-.04,10.22,4.05.34.08,8.26-19.2-.09v-8.31c1.57.13,2.72.28,4.34-.21l.02-30.45-4.4-.14.03-8.42,28.14.46c6.19.1,10.89,5.08,11.8,10.42,1.03,6.04-1.58,11.51-7.67,14.5,2.1,1.14,3.22,2.72,3.85,4.89l2.48,8.48c.67.68,2.79.49,3.74.37v8.43s-13.43-.03-13.43-.03l-3.45-14.59ZM583.7,756.37c.12-2.36-1.4-4.81-4.08-5.67-3.04-.97-6.3-.67-9.63-.49v11.56s8.7-.25,8.7-.25c3.16-.09,4.89-2.62,5.01-5.15Z"/>
    <path class="cls-11" d="M533.13,774.75c-1.07-4.46-4.98-4.95-10.37-4.32v10.34c1.38.39,2.27.34,3.82.17v8.3s-18.97-.02-18.97-.02l-.08-8.2c1.41,0,2.8.24,4.48-.36l-.06-30.39-4.38-.14.04-8.46,27.76.4c6.16.09,10.98,5.14,11.97,10.21,1.23,6.28-1.38,11.63-7.32,14.81,1.5,1.14,2.86,2.17,3.37,3.93l2.65,9.09c.25.84,2.5.98,3.65.72l.05,8.48-13.16-.08-3.46-14.47ZM536.39,755.84c-.35-5.6-6.51-6.4-13.64-5.68l.05,11.62,8.81-.29c3.14-.1,4.94-3.15,4.78-5.64Z"/>
    <path class="cls-8" d="M746.54,770.35l.07,9.83c0,.85,2.48,1.18,3.55.76l.26,8.29-18.87.06v-8.38c1.71.2,2.86.26,4.29-.27v-30.39c-1.48-.34-2.61-.26-4.3-.21l.05-8.35,27.03.3c6.09.07,11.07,4.67,12.2,9.95,1.31,6.1-.97,11.89-7.01,14.88,7.14,6.3,2.62,15.4,9.6,14.02v8.43s-12.91-.04-12.91-.04l-3.56-14.38c-1.12-4.52-4.63-4.98-10.38-4.5ZM760.23,755.79c-.33-5.65-6.48-6.27-13.71-5.67l.08,11.67,8.92-.29c3.15-.1,4.86-3.16,4.71-5.71Z"/>
    <path class="cls-3" d="M342.81,770.32l-.16,10.39c1.35.33,2.46.27,4.19.2l.04,8.38-18.98-.04.02-8.33c1.73.2,2.88.23,4.26-.3l-.06-30.37c-1.34-.36-2.51-.3-4.24-.22l-.08-8.3,27.18.3c6.02.07,10.8,4.78,11.95,9.57,1.53,6.42-.81,12.01-6.69,15.2,6.92,6.08,2.6,15.44,9.36,13.78l.16,8.66h-12.78s-3.61-14.41-3.61-14.41c-1.16-4.63-5.02-4.94-10.54-4.51ZM356.69,755.69c-.18-5.42-6.99-6.36-14.01-5.54l.11,11.71,9.1-.41c3.16-.14,4.89-3.15,4.8-5.77Z"/>
    <path class="cls-11" d="M408.63,786.34c-9.82,6.7-22.81,3.91-29.73-5.16-7.9-10.35-6.98-25.04,2.34-34.16,5.57-5.45,13.49-7.24,21.1-5.22,6.57,1.75,12.34,6.83,15.01,14.05,3.99,10.77,1.39,23.6-8.71,30.48ZM405.04,755.19c-2.1-2.87-4.97-4.45-7.91-4.56-3.23-.12-6.23,1.23-8.56,3.83-4.88,5.45-5.34,13.77-1.69,20.13,1.98,3.44,5.37,5.57,8.85,5.67,3.72.11,7.44-1.4,9.8-5.08,3.94-6.16,3.63-14.37-.48-19.99Z"/>
    <path class="cls-7" d="M257.06,774.01l-14.04-.12-2.39,7.11,4.79.23-.03,8.09-17.8-.17.18-7.69,3.25-.77,12.92-38.91,12.69.02,12.75,38.74c.66.52,2.48.56,3.5.44v8.28s-18.09-.04-18.09-.04l-.07-8.04,4.58-.19-2.22-6.98ZM250.02,751.32l-4.46,14.25c3.43.19,5.66.48,8.78-.18l-4.33-14.07Z"/>
    <path class="cls-11" d="M830.46,773.76l-13.83-.03-2.65,7.25,4.87.13.11,8.21-17.62-.09-.05-7.79,3.37-.84,12.83-38.74,12.52-.04,12.71,38.64c.21.63,2.49.69,3.33.49l.08,8.29-17.65.05-.06-7.97,4.26-.34-2.24-7.22ZM823.27,750.74l-4.45,15.02,8.94-.07-4.49-14.95Z"/>
    <path class="cls-6" d="M370.13,520.6l-29.11-8.3-16.56,52.61-23.76,74.1-.02-371.91,78.16-48.42,35.52-22.26.05,518.36h-95.7s35.51-133.03,35.51-133.03l15.9-61.13ZM409.32,521.55l-.8-29.85-16.56-18.53c-2.11-2.37-3.92-5.72-7.29-6.48l-35.69-8.02c-3.1-.7-5.63,5.37-9.97,3.32-4.21-1.99-.16-7.04-5-9.18-4.88-2.16-10-3.44-15.34-4.11l-4.21,14.9-9.65,34.18,18.69,4.11c1.23-2.2,2.28-4.07,4.07-4.65,1.66-.53,4.23-.71,5.17,1.05l2.56,4.76,25.8,6.77,18.35,4.79c2.5-.29,5.1-3.21,8.07-2.5,7.95,1.98,14.3,6.06,21.79,9.44ZM366.24,444.44c-2.75-.68-4.44,2.89-4.94,4.84-.58,2.27.28,5.42,2.91,6.08l19.09,4.78c3.23.81,6.14-1.85,6.69-4.65s-1.4-5.57-4.5-6.33l-19.25-4.73Z"/>
    <path class="cls-1" d="M693.8,596.43c1.2,4.29-5.17,11.99,2.44,14.9l-2.44,48.27c-.18,3.49-.95,6.83.38,9.96,1.65,3.89,6.21,6.41,9.59,6.72,4.56.42,9.35-.46,11.95-4.11,3.48-4.9,1.58-15.14,10.56-22.89,11.25-9.71,12.5-20.78,14.39-21.61.45-.2,1.23.4,1.66.99l12.44,17.2c2.61,4.23,5.08,8.17,8.62,11.81l-.02,57.13-113.8-.03.02-162.07,14.08-4.46c6.32-2,12.45-3.38,19.15-3.39,9.26,0,17.57-2.16,25.46-7.01l26.39-16.22c3.44-2.11,3.61-4.86,3.05-8.66l-1.24-8.51c-8.09,1.5-15.58.02-21.98-5.38-2.95-2.49-7.97-5.99-8.11-10.51-.26-8.24,3.89-16.5,8.38-23.07l7.54-8.02c-8.73-.67-16.65,1.4-24.18,5.95.23-4.39,1.95-7.84,3.86-11.92-8.44,1.22-13.96,6.62-18.72,12.89-4.07,5.37-21.95-3.5-33.6-3.59V193.64s45.08,28.96,45.08,28.96l68.67,44.35.03,62.47c-4.04,2.16-7.32,4.77-10.79,7.95-3.35,2.31-7.85,4.69-11.99,3.01-6.44-2.61-12.27-6.4-17.91-10.27-2.8-1.92-2.85-5.46-1.52-8.22,2.79-5.8,3.54-12.37.89-18.65-2.02,6.44-2.98,12.66-7.87,16.58-2.83,2.26-5.25,4.92-9.02,6.07-2.46-4.06-1.4-8.65-1.24-13.74-4.6,3.42-6.02,9.21-6.04,14.48-.01,2.94-.73,3.72-2.46,5.91-2.37,3.01-5.6,7.42-6.25,11.44-1.29,7.92-2.53,14.99-5.28,22.49l-5.22,14.24c-.86,2.35-.28,5.06,1.16,6.87,1.17,1.46,3.52,2.17,5.58,2.77,5.6,1.65,9.68-.05,12.76-4.71,1.74-2.63,6.72-1.38,8.77.74,4.72,4.9,10.34,7.96,17.29,8.15,13.98.38,15.9,13.44,22.76,16.43,2.06.9,5.74.87,6.95,2.97l9.39,16.27-.02,151.97c-7.46-2.01-14.66-4.54-22.41-4.24-10.93.41-20.93,3.71-30.94,7.52l-6.94-6.61c-2.22,2.86-1.95,6.31-2.68,9.85-4.4,1.29-8.78.21-13.33-1.71l6.72,9.47Z"/>
    <path class="cls-2" d="M570.91,612.97c-4.39,2.44-8.82,4.22-13.84,4.39,2.86-3.83,6.89-4.29,10.6-5.62,1.24-.44,3.12-.49,3.24,1.23Z"/>
    <path class="cls-2" d="M595.72,602.75c-2.7,3.1-6.24,4.29-10.2,3.91,2.2-3.22,6.14-4.57,10.2-3.91Z"/>
    <path class="cls-2" d="M616.44,596.38l-1.97.93c-.78.37-2.53-.57-1.86-1.34,7.95-5.54,12.1-3.21,8.58-1.67l-4.75,2.08Z"/>
    <path class="cls-2" d="M631.08,714.76l-197.94-.13-.08-319.38c1.74-.15,2.86,1.29,4.34,2.19,4.05-2.05,6.55-5.63,8.7-9.46,10.03-17.94,8.59-41.96-7.88-55.31-1.49-1.21-2.34-2.51-5.12-1.45l.07-146.01c0-2.55,3.42-3.35,5.07-4.38l67.39-41.88,20.84-12.61,9.47-5.97,48.26,31.55,27.45,17.54,19.17,12.54.04,288.53c-2-1.09-2.92-4.56-5.13-4.92-3.43-.55-6.73,1.03-9.89,2.19l-51.41,18.94-55.79,20.96c-.45,3.98.61,7.29,1.69,10.82l7.14,23.31,7.01,19.14c5.8,15.83,11.3,31.26,18.63,46.51l4.29,8.91c.61,1.26,2.72.6,4.13.08l78.5-29.02c1.29.94,1.23,3.67.51,4.51l-23.1,8.82-30.62,11.41-26.27,9.49c-.52,5.2-.27,10.11.8,15.44,2.05.48,3.89-.35,5.9-1.01l27.8-10.69,45.86-16.79-.09,96.51c.86,3.25.94,5.97.26,9.59ZM510.98,501.39l37.56-13.85,76.63-28.49-2.78-14.52-60.46,22.19-19.04,7.25-43.65,16.39c-.67.25-1.7,1.24-1.54,1.75l7.81,9.89c1.36,1.72,4.11-.1,5.47-.6ZM498.55,272.13c-9.03,7.78-14.93,18.67-15.65,30.96-.82,14.12,4.64,26.82,15.93,35.31,10.71-5.95,16.39-22.39,15.83-34.25-.6-12.8-6.12-23.93-16.12-32.02ZM477.49,313.8c-2.87-4.48-5.58-8.78-10.3-11.74l-5.5,5.32c-10.56,12.67-13.03,31.01-5.71,45.85,2.81,5.7,6.55,10.39,11.14,14.87,5.54-1.88,8.41-6.41,11.1-11.48,7.36-13.88,7.6-29.79-.73-42.81ZM520.85,334.48c-6.43,2.37-11.82,6.21-15.7,11.95,16.82,21.42,48.25,23.92,67.45,3.73-12.1-16.56-32.64-22.73-51.76-15.69ZM569.74,279.49c-15.32-3.2-30.94,2.1-39.82,14.67-5.98,8.46-8.17,18.24-5.28,28.21,15.85,4.22,31.65-2.45,40.3-16.7,4.87-8.02,5.81-17.04,4.8-26.18ZM510.4,408.91c-17.23-22.43-48.18-25.67-67.6-5.01,5.14,6.38,10.71,12.31,18.34,15.37,9.72,3.91,21.11,4.1,31.11,1.02,6.96-2.14,12.43-6.56,18.15-11.39ZM494.22,362.12c-7.98,1.87-14.93,5.9-19.59,12.91,3.31,6.15,8.73,9.98,14.78,13.07,18.17,9.29,35.81,7.41,50.63-7.48-9.94-15.35-28.3-22.6-45.82-18.5Z"/>
    <path class="cls-9" d="M633.06,541c0,25.37-20.57,45.94-45.94,45.94s-45.94-20.57-45.94-45.94,20.57-45.94,45.94-45.94,45.94,20.57,45.94,45.94ZM586.38,569.61l22.25-8.97c.85-.34,1.69-.83,1.87-1.47.2-.7-.05-1.71-.63-2.5-5.87-7.94-16.18-3.32-17.26-5.83-1.13-2.63-1.79-5.33-2.29-8.1,11.61-4.85,16.61-17.09,11.66-28.38-8.99,2.4-14.7,10.17-15.28,19.23-.14,2.17.62,4.34-.36,6.47-7.36-9.81-15.46-15.23-27.14-10.15-.74,1.53.98,3.27,1.5,4.24,8.29,15.6,24.52,9.47,26.08,11.53s2.19,4.79,2.74,7.38c-3.33,2.43-6.53,4.57-8.53,8.3-1.16,2.16-1.73,6.62-.11,8.63,1.41,1.74,4.26.12,5.51-.38Z"/>
    <path class="cls-8" d="M426.09,912.11l.04-23.28,59.81-.05v68.86s-25.9-.01-25.9-.01l-.41-20.21c-7.59,12.63-19.33,20.11-33.9,21.07-17.56,1.16-34.08-5.8-45.95-18.83-25.24-27.71-22.95-73.33,5.67-98.53,20.7-18.23,52.18-21.04,73.78-3.03l18.46.12-.13,29.69-26.3-.05c-4.85-7.87-12.3-13.47-20.35-14.77-9.67-1.56-18.71,1.01-25.93,7.74-14.31,13.35-17.51,35.79-8.12,52.93,4.64,8.46,11.92,14.63,21.08,16.63,14.22,3.1,28.08-4.38,32.46-18.23l-24.33-.05Z"/>
    <polygon class="cls-4" points="914.02 933.99 946.96 934.01 947.07 911.67 975.01 911.7 975.02 957.85 872.31 957.82 872.06 934.28 885.37 934.24 885.54 853.55 872.18 852.89 872.16 828.28 975.02 828.27 975.02 872.59 947.25 872.48 947.19 853.68 914.07 853.79 914.01 879.61 939.9 879.64 939.95 904.01 914.02 904.1 914.02 933.99"/>
    <path class="cls-8" d="M569.82,851.31v-23.09s51.9,0,51.9,0l-.09,23.16-10.34.4-.02,53.47c-.01,29.08-18.47,53.61-48.54,54.34-14.14.34-27.55-3.69-37.46-14.01-9.63-10.03-15.16-23.26-15.21-37.38l-.2-56.38-11.58-.74v-22.86s51.98,0,51.98,0v22.88s-11.93.23-11.93.23l-.03,55.36c0,14.37,7.37,26,22.23,26.22,15.88.24,23.01-11.86,23-27.64l-.03-50.54c0-2.04-1.36-3.41-3.34-3.41l-10.34-.03Z"/>
    <polygon class="cls-8" points="830.03 957.71 774.85 957.83 774.8 934.12 787.6 934.07 787.61 851.19 771.91 851.16 771.8 867.42 744.01 867.48 743.91 828.24 861.74 828.24 861.72 867.49 834.05 867.42 833.89 851.14 816.24 851.16 816.29 934.03 830.09 934.13 830.03 957.71"/>
    <polygon class="cls-10" points="146.99 933.95 179.47 933.97 179.52 911.87 207.07 911.86 207.12 957.86 105.09 957.8 104.98 934.26 118.2 934.08 118.21 853.53 105.04 852.83 105.03 828.43 207.21 828.39 207.24 872.43 179.64 872.53 179.61 853.62 147.05 853.62 147.03 878.91 172.27 878.99 172.2 903.88 147.02 904.13 146.99 933.95"/>
    <path class="cls-8" d="M296.59,910.4l27.81-.03.11,47.5-103.26-.02-.07-23.71,12.78-.09v-82.45s-12.7-.51-12.7-.51v-22.86s54.96-.01,54.96-.01l.13,22.88-13.6.49v82.27s28.97.06,28.97.06c3.15-.16,4.9-2.4,4.96-5.47l-.08-18.02Z"/>
    <path class="cls-8" d="M708.26,916.47l-39.45.02-5.59,17.68,13.29.08.03,23.55-48.89-.02-.1-23.7,9.55-.15,35.05-105.67,34.37-.08,34.39,105.64,9.53.37-.03,23.67-48.84-.06v-23.59s11.98-.07,11.98-.07l-5.28-17.67ZM688.43,854.07l-13.06,40.54,26.08-.18-13.02-40.37Z"/>
  </g>
</svg>